<?xml version="1.0" encoding="UTF-8" standalone="no"?>
<!-- Created with Inkscape (http://www.inkscape.org/) -->

<svg
   version="1.1"
   id="svg4016"
   width="300"
   height="300"
   viewBox="0 0 300 300"
   xml:space="preserve"
   sodipodi:docname="皆-seal.svg"
   inkscape:version="1.2.2 (732a01da63, 2022-12-09)"
   xmlns:inkscape="http://www.inkscape.org/namespaces/inkscape"
   xmlns:sodipodi="http://sodipodi.sourceforge.net/DTD/sodipodi-0.dtd"
   xmlns="http://www.w3.org/2000/svg"
   xmlns:svg="http://www.w3.org/2000/svg"><sodipodi:namedview
     id="namedview24"
     pagecolor="#ffffff"
     bordercolor="#666666"
     borderopacity="1.0"
     inkscape:showpageshadow="2"
     inkscape:pageopacity="0.0"
     inkscape:pagecheckerboard="0"
     inkscape:deskcolor="#d1d1d1"
     showgrid="false"
     inkscape:zoom="1.8526198"
     inkscape:cx="62.074259"
     inkscape:cy="170.56927"
     inkscape:window-width="1920"
     inkscape:window-height="982"
     inkscape:window-x="-10"
     inkscape:window-y="-10"
     inkscape:window-maximized="1"
     inkscape:current-layer="svg4016" /><defs
     id="defs4020"><pattern
       id="EMFhbasepattern"
       patternUnits="userSpaceOnUse"
       width="6"
       height="6"
       x="0"
       y="0" /><pattern
       id="EMFhbasepattern-5"
       patternUnits="userSpaceOnUse"
       width="6"
       height="6"
       x="0"
       y="0" /><pattern
       id="EMFhbasepattern-2"
       patternUnits="userSpaceOnUse"
       width="6"
       height="6"
       x="0"
       y="0" /><pattern
       id="EMFhbasepattern-25"
       patternUnits="userSpaceOnUse"
       width="6"
       height="6"
       x="0"
       y="0" /><pattern
       id="EMFhbasepattern-5-1"
       patternUnits="userSpaceOnUse"
       width="6"
       height="6"
       x="0"
       y="0" /><pattern
       id="EMFhbasepattern-2-9"
       patternUnits="userSpaceOnUse"
       width="6"
       height="6"
       x="0"
       y="0" /><pattern
       id="EMFhbasepattern-8"
       patternUnits="userSpaceOnUse"
       width="6"
       height="6"
       x="0"
       y="0" /><pattern
       id="EMFhbasepattern-5-5"
       patternUnits="userSpaceOnUse"
       width="6"
       height="6"
       x="0"
       y="0" /><pattern
       id="EMFhbasepattern-2-95"
       patternUnits="userSpaceOnUse"
       width="6"
       height="6"
       x="0"
       y="0" /><pattern
       id="EMFhbasepattern-4"
       patternUnits="userSpaceOnUse"
       width="6"
       height="6"
       x="0"
       y="0" /><pattern
       id="EMFhbasepattern-1"
       patternUnits="userSpaceOnUse"
       width="6"
       height="6"
       x="0"
       y="0" /></defs><g
     transform="matrix(0.33559755,0,0,-0.33559755,34.01384,305.1187)"
     fill="#000000"
     stroke="none"
     id="g331"><path
       d="M 115,898 C 99,892 80,886 73,884 57,880 47,806 55,752 c 4,-26 9,-56 11,-67 2,-11 5,-31 8,-45 2,-14 5,-34 5,-46 1,-11 7,-29 15,-40 14,-17 16,-18 31,-3 15,15 15,20 0,65 -10,27 -20,88 -22,136 -5,87 -5,87 32,102 21,9 39,16 40,16 8,0 25,-64 35,-127 7,-40 16,-75 21,-79 5,-3 9,-15 9,-27 0,-12 7,-31 15,-42 14,-18 16,-18 32,-2 14,13 14,21 5,42 -17,38 -43,155 -36,166 3,6 0,16 -6,24 -16,20 -5,45 19,45 30,0 51,11 51,26 0,11 -19,14 -87,13 -49,-1 -101,-6 -118,-11 z"
       id="path325" /><path
       d="m 407,898 c -46,-13 -57,-35 -47,-103 8,-62 40,-176 53,-192 5,-7 18,-13 28,-13 23,0 25,24 5,72 -8,18 -22,66 -32,105 -14,60 -15,73 -3,86 20,21 69,3 69,-26 0,-12 7,-40 16,-62 8,-22 17,-48 21,-57 3,-10 9,-18 14,-18 5,0 9,-7 9,-15 0,-36 62,-110 85,-101 24,9 18,32 -24,94 -21,31 -45,75 -52,97 -7,22 -17,44 -21,50 -4,5 -8,19 -8,32 0,21 4,23 50,23 45,0 64,10 42,24 -17,11 -170,14 -205,4 z"
       id="path327" /><path
       d="m 293,555 c -7,-8 -13,-33 -13,-55 0,-42 -17,-70 -43,-70 -8,0 -22,-9 -32,-20 -10,-11 -29,-20 -42,-20 -21,0 -23,4 -23,50 0,43 -3,50 -20,50 -19,0 -20,-7 -21,-132 -3,-253 -3,-250 31,-286 16,-17 42,-34 57,-38 16,-3 39,-9 53,-13 30,-9 133,-7 175,3 54,14 73,28 92,69 16,36 18,63 15,206 -2,156 -10,199 -33,185 -5,-3 -9,-27 -9,-55 0,-27 -3,-49 -6,-49 -12,0 -69,35 -77,48 -5,7 -20,17 -33,22 -22,9 -31,32 -25,64 1,6 0,20 -4,33 -6,26 -24,29 -42,8 z m 69,-165 c 5,0 18,-8 29,-18 10,-11 32,-25 47,-33 34,-18 42,-29 38,-54 -3,-22 18,-20 -253,-16 -83,1 -83,1 -83,37 0,29 4,37 28,45 15,5 56,24 92,43 62,31 66,32 79,14 7,-10 18,-18 23,-18 z m 91,-169 c 24,-1 27,-5 27,-38 0,-57 -20,-103 -50,-111 -31,-8 -149,-7 -213,2 -38,6 -50,13 -62,36 -15,28 -21,101 -9,112 5,5 78,5 307,-1 z"
       id="path329" /></g></svg>
