<?xml version="1.0" encoding="UTF-8" standalone="no"?>
<svg
   xmlns:dc="http://purl.org/dc/elements/1.1/"
   xmlns:cc="http://creativecommons.org/ns#"
   xmlns:rdf="http://www.w3.org/1999/02/22-rdf-syntax-ns#"
   xmlns:svg="http://www.w3.org/2000/svg"
   xmlns="http://www.w3.org/2000/svg"
   version="1.1"
   id="svg56"
   width="300"
   height="300"
   viewBox="0 0 300 300">
  <metadata
     id="metadata62">
    <rdf:RDF>
      <cc:Work
         rdf:about="">
        <dc:format>image/svg+xml</dc:format>
        <dc:type
           rdf:resource="http://purl.org/dc/dcmitype/StillImage" />
        <dc:title></dc:title>
      </cc:Work>
    </rdf:RDF>
  </metadata>
  <defs
     id="defs60" />
  <path
     style="fill:#000000;stroke-width:0.69261545"
     d="m 135.44308,222.46521 c -10.85839,5.7224 -22.1035,9.22115 -34.21873,10.30289 l 45.40471,-33.39329 -0.7434,-28.91254 c -42.68517,1.15711 -52.979036,-8.36551 -58.795474,-30.41161 -2.134631,-8.09092 -1.59296,-16.95818 0.369778,-27.35655 C 92.186381,87.654067 106.69611,66.002892 117.3898,48.39125 128.27834,30.483512 137.52951,15.457449 137.94795,15 c 0,0 37.58656,42.523115 51.2429,60.455332 10.40268,13.659824 14.47519,24.232013 15.31004,34.810088 2.4415,30.93518 -10.66322,55.30483 -47.57874,59.29629 l 1.25958,29.54042 c 0.37587,4.44203 0.46125,4.61178 2.92418,5.81367 15.51895,7.70345 33.11356,11.08285 46.85913,19.25279 6.08014,3.65439 6.03022,3.91988 -13.67389,2.03165 l -16.99801,-2.6924 c 0,0 6.30486,19.98833 9.72948,29.89114 2.77447,8.02283 6.40597,17.31723 5.82169,20.91777 -0.41907,2.58233 -2.17301,5.05515 -3.58559,5.05515 -0.46028,0 -1.25223,-1.1341 -2.25449,-3.09081 l -18.82809,-54.22041 c -8.38697,-2.9119 -12.43867,-5.63937 -19.52945,-9.02011 -1.88666,1.73213 -2.57061,2.52831 -5.74662,5.82424 -1.0091,17.82685 -2.63399,33.4045 -7.83991,54.61986 -1.40128,5.71051 -10.17134,17.02279 -8.44259,8.35941 3.47675,-17.42321 8.62427,-43.10595 8.82551,-59.37887 z m 10.16122,-62.23024 c -0.30455,-9.46986 -1.49855,-31.99848 -2.93636,-43.60655 l -45.862451,2.76478 c -1.906561,9.19295 -2.612785,23.1837 4.424391,30.80592 10.28717,11.14239 25.29617,11.43872 44.37442,10.03585 z m -29.41547,-29.06338 c 3.97076,-7.71376 8.99831,1.21087 9.0139,4.92528 0.0183,4.35158 -0.31663,5.382 -4.62072,5.75199 -5.52061,0.47458 -5.93981,-7.67273 -4.39318,-10.67727 z m 78.60744,-17.87188 -42.47161,2.68991 c 1.21364,11.07308 2.89201,29.57701 3.80756,43.45402 35.05435,-5.29988 38.6917,-27.49834 38.66405,-46.14393 z m -28.95442,23.2618 c -0.47137,-3.59143 -0.87577,-6.87939 -1.31804,-10.4612 4.54175,0.24952 7.90255,2.48135 9.25655,5.39819 1.96497,4.31966 1.71052,4.86763 -2.34556,6.27876 -3.27611,1.13979 -5.11286,2.23246 -5.59295,-1.21575 z m -24.35127,-30.13812 c -1.40096,-21.671756 -4.29225,-48.738884 -5.59343,-66.447868 l -9.88221,15.964912 c -10.33897,16.702807 -24.77485,39.580813 -26.574159,52.599586 0,0 29.674509,-0.92144 42.049799,-2.11663 z M 117.18396,78.682539 c 6.99243,-0.534539 11.76354,3.575525 9.87013,9.782677 -0.98471,3.393497 -2.62047,4.411538 -5.44883,5.827776 -2.12774,-4.584336 -3.58456,-10.290311 -4.4213,-15.610453 z m 76.55757,24.900381 c -4.1771,-18.439889 -29.83101,-43.695197 -47.6233,-61.910207 2.25386,28.067438 3.43428,41.845226 5.6606,64.642237 z M 157.75565,76.079944 c 0,-0.668252 5.27473,-0.34462 7.25437,1.166027 4.23597,3.232427 5.20196,8.19748 6.05949,13.041912 h -8.97281 c -1.41604,-4.738587 -3.14564,-9.414609 -4.34105,-14.207939 z M 105.81446,259.73019 c 0.55339,-4.89234 2.39667,-16.74613 9.15031,-10.89 2.81692,2.44257 1.46586,4.86864 -0.0727,10.29234 -0.99104,3.49358 -1.79883,7.27249 -4.51959,10.48887 -4.90893,5.80313 -5.19002,-4.34884 -4.55803,-9.89121 z m 103.19473,0.87339 c -6.58269,-1.48455 -11.14261,-13.53381 -12.86344,-19.16004 0.86787,-0.86786 7.87815,2.00854 10.62462,4.3594 2.97288,2.54469 6.63767,9.17698 7.35461,13.30995 0.43729,2.52074 0.29286,2.71046 -5.11579,1.49069 z M 105.80949,198.1721 c -0.20106,-5.50234 3.93526,-12.34591 9.15461,-11.33813 4.63123,0.89421 5.21114,3.3435 1.99282,9.86591 -2.97083,6.02084 -10.83612,9.99188 -11.14743,1.47222 z m 86.50244,-0.0537 c -7.34866,-3.07567 -7.73671,-3.72016 -9.41755,-11.53088 -2.45915,-11.42742 6.51923,-4.31187 12.51675,-0.40321 5.58678,3.70829 10.44668,11.35217 7.85091,12.34827 -3.37462,1.29495 -7.21339,1.14976 -10.95011,-0.41418 z"
     id="path66" />
</svg>
