<?xml version="1.0" encoding="UTF-8" standalone="no"?>
<svg
   xmlns:dc="http://purl.org/dc/elements/1.1/"
   xmlns:cc="http://creativecommons.org/ns#"
   xmlns:rdf="http://www.w3.org/1999/02/22-rdf-syntax-ns#"
   xmlns:svg="http://www.w3.org/2000/svg"
   xmlns="http://www.w3.org/2000/svg"
   version="1.1"
   id="svg120"
   width="300"
   height="300"
   viewBox="0 0 300 300">
  <metadata
     id="metadata126">
    <rdf:RDF>
      <cc:Work
         rdf:about="">
        <dc:format>image/svg+xml</dc:format>
        <dc:type
           rdf:resource="http://purl.org/dc/dcmitype/StillImage" />
        <dc:title></dc:title>
      </cc:Work>
    </rdf:RDF>
  </metadata>
  <defs
     id="defs124" />
  <path
     style="fill:#000000;stroke-width:0.72639227"
     d="m 58.541836,217.48926 c 1.024458,-6.20773 13.38673,-8.44024 22.729464,-10.47836 41.90776,-9.14223 72.15744,-13.45123 128.74595,-18.33956 13.03449,-1.67202 35.35074,-1.33097 43.84018,6.95621 13.09325,15.86467 -2.90343,14.17325 -15.68541,16.54062 -43.84947,4.61092 -89.28523,6.36936 -126.75544,16.19389 -15.05908,4.8419 -52.749788,3.07765 -52.874744,-10.8728 z M 8.9952661,97.811968 125.76282,83.446396 c 125.24559,-15.408592 121.90765,-15.0949 144.00727,-13.533456 10.63787,0.08501 32.2808,9.321733 22.80536,17.736681 C 279.46533,97.205159 262.89502,98.11174 251.61028,98.411078 161.69736,105.70771 94.137837,107.45979 10.266456,123.20912 4.7740725,124.68421 2.6033404,98.931607 8.9952661,97.811968 Z"
     id="path130" />
</svg>
