<?xml version="1.0" encoding="UTF-8" standalone="no"?>
<svg
   xmlns:dc="http://purl.org/dc/elements/1.1/"
   xmlns:cc="http://creativecommons.org/ns#"
   xmlns:rdf="http://www.w3.org/1999/02/22-rdf-syntax-ns#"
   xmlns:svg="http://www.w3.org/2000/svg"
   xmlns="http://www.w3.org/2000/svg"
   version="1.1"
   id="svg276"
   width="300"
   height="300"
   viewBox="0 0 300 300">
  <metadata
     id="metadata282">
    <rdf:RDF>
      <cc:Work
         rdf:about="">
        <dc:format>image/svg+xml</dc:format>
        <dc:type
           rdf:resource="http://purl.org/dc/dcmitype/StillImage" />
        <dc:title></dc:title>
      </cc:Work>
    </rdf:RDF>
  </metadata>
  <defs
     id="defs280" />
  <path
     style="fill:#000000;stroke-width:0.72639227"
     d="m 147.50931,278.52923 c -3.11338,-0.6072 -5.5779,-10.30798 -5.49713,-21.63773 0.37967,-78.80956 0.63515,-138.89027 1.00409,-222.422811 -30.28543,-0.17781 -57.794115,-0.412125 -88.625251,-1.63029 -8.309028,-0.236597 -6.815038,-11.544929 -0.82683,-11.704928 l 96.063881,0.197122 c 88.58091,0.181767 96.27608,0.293255 98.78786,1.431243 3.71604,1.557561 3.932,5.926692 0.72639,7.808034 -6.80581,3.369888 -58.5985,3.91844 -92.43341,3.892505 0.17794,78.404355 -0.83886,147.857105 -0.75862,239.646825 -0.58223,4.41318 -3.52915,5.37798 -8.44092,4.42003 z"
     id="path286" />
</svg>
