<?xml version="1.0" encoding="UTF-8"?>
<svg version="1.1" id="zdic.net" xmlns="http://www.w3.org/2000/svg" xmlns:xlink="http://www.w3.org/1999/xlink" x="0px" y="0px" viewBox="0 0 400 400" style="enable-background:new 0 0 400 400;" xml:space="preserve">
<g>
	<path d="M259.16,169.38c-24.51,0-48.74,0.05-72.97-0.05c-3.84-0.02-7.77-0.33-11.49-1.19c-1.75-0.41-3.67-2.18-4.55-3.84   c-1.87-3.53-0.94-5.46,2.83-6.84c9.45-3.47,19.34-3.53,29.22-3.4c16.86,0.23,33.72,0.54,50.58,0.82c1.1,0.02,2.21,0,4.15,0   c0-18.89,0-37.51,0-56.46c-5.86,2.95-9.81,2.23-14.32-2.1c-5.36-5.16-10.74-10.3-16.48-15.82c-2.41,10.36-0.76,19.71,2.2,28.92   c0.35,1.08,1.49,1.96,2.37,2.82c5.12,4.95,10.62,9.56,15.29,14.9c2.68,3.07,4.51,7.13,5.86,11.05c1.21,3.5-2.22,6.43-5.65,4.96   c-3.27-1.4-6.59-3.16-9.22-5.51c-6.69-5.99-13-12.4-19.54-18.72c-4.65,5-9.05,9.88-13.62,14.6c-4.14,4.29-8.96,7.56-14.93,8.82   c-4.06,0.86-6.34-0.97-5.48-5.05c0.48-2.28,1.8-4.65,3.39-6.39c3.79-4.14,7.97-7.93,11.98-11.86c7.09-6.93,11.25-15.21,11.49-25.24   c0.11-4.33,0.02-8.67,0.02-14.11c-1.94,1.45-3.68,2.31-4.81,3.68c-4.45,5.39-8.61,11.03-13.08,16.41   c-3.14,3.79-6.97,6.42-12.32,5.73c-2.83-0.36-4.69-1.82-3.93-4.61c0.93-3.39,1.98-7.12,4.15-9.73c5.9-7.1,12.26-13.85,18.79-20.39   c2.2-2.2,5.32-3.71,8.27-4.87c3.14-1.23,4.09-3.35,4.1-6.32c0.02-5.25-0.06-10.5,0.04-15.75c0.12-6.3,1.56-12.3,4.27-17.93   c5.98,1.03,9.03,4.06,9.18,9.73c0.1,3.84-0.56,7.7-0.86,11.55c-0.24,3.11-0.51,6.21-0.65,9.33c-0.24,5.32,1.71,8.57,7,11.19   c10.7,5.28,19.22,13.36,24.56,24.34c0.32,0.65,0.62,1.3,1.61,1.94c0.15-1.64,0.34-3.27,0.43-4.91c0.84-16.1,1.69-32.19,2.49-48.29   c0.42-8.42,3.04-12.02,10.09-13.3c3.34,6.52,4.81,13.64,4.69,20.86c-0.17,10.6-1.2,21.19-1.69,31.79   c-0.64,13.82-1.1,27.64-1.67,42.21c5.55-1.81,10.21-3.13,14.69-4.91c1.09-0.43,1.87-2.24,2.32-3.58   c3.28-9.66,3.06-19.66,2.72-29.66c-0.41-11.74-0.9-23.47-1.2-35.22c-0.07-2.85,0.31-5.74,0.8-8.56c0.27-1.54,0.95-3.14,1.87-4.41   c3.06-4.22,7.58-4.14,9.33,0.6c1.64,4.44,2.58,9.38,2.65,14.11c0.2,13.11,0.11,26.24-0.5,39.34c-0.44,9.32-1.99,18.59-2.88,27.9   c-0.61,6.32-4.98,9.54-9.89,12.1c-4.75,2.48-9.69,4.65-14.72,6.49c-3.04,1.11-4.35,2.67-4.27,5.92c0.09,3.47-0.3,6.96-0.53,11.45   c5.51,0.45,10.77,1.02,16.04,1.26c2.98,0.14,6.03-0.67,8.95-0.32c2.33,0.28,5,1.17,6.7,2.7c4.78,4.3,3.83,8.69-2.34,10.05   c-4.92,1.08-10.11,1.01-15.19,1.33c-3.93,0.24-7.88,0.3-12.44,0.46c2.83,12.18,4.9,23.68,8.38,35.77   c5.18-7.3,9.48-13.56,14.01-19.65c3.63-4.89,8.16-8.3,14.73-8.31c3.24,0,5.02,1.59,4.59,4.36c-0.48,3.17-1.43,6.64-3.3,9.13   c-4.18,5.58-9.13,10.58-13.62,15.95c-1.59,1.9-2.75,4.15-4.08,6.27c-3.42,5.47-4.21,10.56-0.01,16.44   c4.33,6.06,7.28,13.09,11.28,19.41c3.59,5.67,7.9,10.86,11.68,16.42c3.05,4.48,4.92,9.44,4.89,15.22c-2.76,0.54-5.3,1.31-7.87,1.4   c-1.09,0.04-2.56-1.13-3.29-2.15c-7.98-11.19-15.84-22.45-23.75-33.69c-0.69-0.99-1.44-1.93-3.24-2.85   c-1.01,6.32-2.24,12.61-3,18.96c-2.01,16.83,0.58,33.4,3.42,49.91c2.9,16.85,6.04,33.66,8.97,50.51c0.53,3.06,0.75,6.21,0.85,9.32   c0.08,2.63-0.55,5.46-3.79,5.4c-2.82-0.05-6.04-0.17-7.21-3.98c-6.06-19.84-11.14-39.9-13.47-60.56   c-1.23-10.91-2.63-21.81-3.57-32.75c-1.16-13.5,2.24-26.55,4.66-39.68c1.02-5.52,2.2-11.02,3.09-16.56   c0.24-1.5,0.08-3.32-0.58-4.66c-7.04-14.27-10.8-29.44-12.72-45.14C259.98,172.62,259.61,171.42,259.16,169.38z"/>
	<path d="M217.2,331.77c7.49,0.12,14.33,0.2,21.16,0.34c3.35,0.07,6.7,0.22,10.05,0.36c0.37,0.01,0.74,0.14,1.09,0.25   c3.63,1.2,8.83,6.32,7.61,7.77c-2.03,2.42-5.34,4.88-8.32,5.16c-8.16,0.75-16.43,0.57-24.65,0.41   c-13.61-0.26-27.21-0.78-40.82-1.19c-3.19-0.1-5.41-2.19-5.56-5.25c-0.18-3.66,1.11-5.12,4.83-5.55   c6.44-0.75,12.88-1.54,19.58-2.34c0.45-6.53,0.88-12.84,1.35-19.7c-5.29-0.31-10.22-0.61-15.15-0.9c-1-0.06-2-0.04-2.99-0.13   c-7.65-0.69-9.7-3.56-7.96-11.59c8.18-0.72,16.48-1.55,24.8-2.11c2.27-0.15,3.67-0.87,4.65-2.9c4.18-8.6,10.05-15.68,18.35-20.72   c3.28-2,6.24-9.12,4.7-9.73c-3.07-1.21-6.88-2.27-9.91-1.51c-7.44,1.86-14.69,4.32-20.07,10.7c-3.42,4.05-7.84,7.33-12.1,10.56   c-3.68,2.8-8.01,3.86-12.78,2.68c-0.72-4.81-0.44-8.67,3.5-12.52c7.88-7.69,15.2-15.96,25.68-20.2c4.99-2.02,6.57-5.57,5.99-10.89   c-3.22-1.05-6.57-2.49-10.06-3.18c-5.12-1.01-7.82-4.5-10.12-8.61c-5.48-9.75-5.92-20.53-5.98-31.28   c-0.03-5.85,0.69-11.71,1.22-17.55c0.32-3.6,2.75-6.05,5.46-5.88c4.48,0.29,6.56,2.5,6.48,6.89c-0.02,1-0.06,2-0.01,3   c0.29,5.98,0.79,6.39,6.81,6.48c8.49,0.12,16.99,0.26,25.47,0.53c2.36,0.07,3.66-0.44,4-3.08c0.4-3.08,0.84-6.31,2.13-9.07   c0.85-1.81,3.04-3.49,4.99-4.16c2.43-0.83,3.85,1.04,4.88,3.39c3.52,8.06,4.52,16.45,2.8,24.93c-1.8,8.88-4.25,17.65-6.74,26.37   c-0.47,1.65-2.24,3.17-3.78,4.2c-2.58,1.73-5.65,2.75-8.15,4.56c-2.16,1.57-3.82,3.84-5.71,5.81c5.15,2.92,9.78,4.94,13.71,7.89   c9.15,6.88,9.26,20.82,0.58,28.35c-4.97,4.31-9.94,8.62-14.91,12.93c0.09,0.4,0.17,0.79,0.26,1.19c6.17,0.25,12.35,0.6,18.52,0.73   c4.48,0.09,7.57,1.96,9.43,6.08c0.87,1.93,0.61,3.16-1.21,4.38c-3.76,2.54-7.78,3.69-12.34,3.43c-5.32-0.3-10.67-0.36-16-0.42   c-2.01-0.02-3.01,0.93-3.15,3.21C218.49,319.48,217.83,325.05,217.2,331.77z M200.46,207.63c0.72,3.32,1.31,6.08,1.92,8.85   c2.53,11.54,2.53,11.54,14.32,12.07c0.5,0.02,1,0.01,1.49-0.03c10.3-0.72,13.33-5.97,14.46-16.06c0.36-3.21-1.19-5.06-4.9-4.88   c-4.98,0.24-9.98,0.06-14.97,0.06C208.83,207.63,204.87,207.63,200.46,207.63z"/>
	<path d="M113.88,201.25c-3.96,0-7.68,0.05-11.39-0.01c-5.12-0.08-10.25-0.03-15.34-0.47c-2.13-0.18-4.44-1.1-6.18-2.37   c-4.41-3.22-3.83-8.58,1.34-9.67c5.75-1.22,11.8-1.01,17.72-1.37c3.59-0.22,7.21-0.15,10.77-0.55c2.15-0.24,3.13-1.61,3.32-4.12   c0.82-10.96,1.82-21.91,3.06-32.83c0.99-8.74,6.28-14.05,16.38-15.11c7.12-0.75,14.42,0.11,21.63,0.45   c1.38,0.07,2.92,0.85,4.04,1.74c3.27,2.57,2.77,7.6-1.1,8.92c-3.47,1.18-7.24,1.59-10.91,2.05c-3.82,0.48-7.69,0.55-11.53,0.91   c-2.53,0.24-4.11,1.77-4.58,4.23c-0.89,4.65-1.9,9.29-2.41,13.98c-0.64,5.94-0.84,11.93-1.27,18.59   c6.65,0.43,12.94,0.81,19.23,1.26c3.23,0.23,6.48,0.36,9.66,0.92c2.99,0.52,5.04,2.34,4.72,5.71c-0.31,3.29-1.59,5.31-5.58,5.47   c-8.96,0.36-17.9,1.27-27.11,1.98c-0.6,43.4-1.2,86.47-1.81,130.67c7.14,0.13,14.03,0.32,20.92,0.35c4.23,0.02,8.49-0.49,12.7-0.21   c4.93,0.32,8.81,2.79,10.81,7.47c0.37,0.87-0.12,3.02-0.75,3.27c-3.84,1.58-7.82,3.9-11.77,3.92c-17.35,0.08-34.71-0.54-52.06-0.91   c-9.24-0.2-18.48-0.62-27.72-0.55c-3.91,0.03-4.87-2.44-5.77-5.16c-0.96-2.91,0.57-4.44,3.25-5.62c7.13-3.15,14.41-2.19,21.76-1.47   c3.08,0.3,6.22,0.19,9.33,0.13c3.14-0.06,4.42-1.49,4.46-4.91c0.21-22.12,0.63-44.23,1.03-66.35c0.34-18.87,0.76-37.73,1.14-56.59   C113.9,204.01,113.88,203.03,113.88,201.25z"/>
	<path d="M99.57,101.7c9.91-0.43,19.11-1.08,28.32-1.13c4.28-0.02,8.68,0.7,12.82,1.84c3.49,0.96,5.83,3.68,6.35,7.52   c-11.23,8.04-43.33,7.66-50.79-0.46c-2,4.36-3.56,9.04-6.17,13.04c-2.09,3.2-5.21,5.88-8.31,8.2c-2.75,2.05-5.32,0.56-5.77-2.58   c-0.42-2.94-0.6-6.41,0.57-8.99c5.85-12.93,12.09-25.7,18.38-38.43c4.37-8.83,8.48-17.87,13.82-26.1c3.29-5.07,8.57-8.9,13.2-13   c0.78-0.69,2.91-0.19,4.29,0.21c5.56,1.59,9.91,5.19,12.65,10.01c9.83,17.35,19.71,34.72,25.64,53.93   c0.84,2.71,1.13,5.62,1.44,8.47c0.78,7.15,0.73,7.16-7.15,9.09c-3.21-6.34-6.72-12.76-9.75-19.4   c-6.01-13.15-11.76-26.42-17.61-39.65c-1.75-3.97-4.28-6.99-9.24-7.64c-3.71,7.4-7.45,14.84-11.19,22.28   C107.39,86.24,103.68,93.57,99.57,101.7z"/>
	<path d="M164.38,313.77c-2.49,0.52-4.77,1.31-7.06,1.35c-1.17,0.02-2.68-1.04-3.49-2.04c-4.74-5.85-5.67-12.98-5.97-20.11   c-0.73-17.35-1.68-34.72-1.51-52.07c0.08-8.37,2.36-16.73,3.9-25.05c0.56-3.03,2.81-5.03,6.03-4.94c3.49,0.1,5.82,2.69,5.74,6.58   c-0.13,5.99-0.56,11.97-1.04,17.94c-1.93,24.29,0.06,48.41,2.99,72.49C164.18,309.76,164.23,311.62,164.38,313.77z"/>
	<path d="M88.02,216.7c4.33,0.27,6.87,2.37,7.86,5.87c0.91,3.21,1.54,6.6,1.65,9.93c0.57,16.48,1.37,32.97,1.17,49.45   c-0.11,8.91-2.14,17.79-3.15,26.7c-0.48,4.27-4.13,3.29-6.57,3.96c-0.65,0.18-2.4-1.95-2.87-3.29c-0.78-2.2-1.25-4.61-1.29-6.94   c-0.34-19.61-0.71-39.23-0.73-58.84c-0.01-5.96,0.85-11.95,1.62-17.88C86.09,222.73,87.17,219.89,88.02,216.7z"/>
</g>
</svg>