<?xml version="1.0" encoding="UTF-8" standalone="no"?>
<svg
   xmlns:dc="http://purl.org/dc/elements/1.1/"
   xmlns:cc="http://creativecommons.org/ns#"
   xmlns:rdf="http://www.w3.org/1999/02/22-rdf-syntax-ns#"
   xmlns:svg="http://www.w3.org/2000/svg"
   xmlns="http://www.w3.org/2000/svg"
   viewBox="0 0 300 300"
   height="300"
   width="300"
   id="svg10"
   version="1.1">
  <metadata
     id="metadata16">
    <rdf:RDF>
      <cc:Work
         rdf:about="">
        <dc:format>image/svg+xml</dc:format>
        <dc:type
           rdf:resource="http://purl.org/dc/dcmitype/StillImage" />
        <dc:title></dc:title>
      </cc:Work>
    </rdf:RDF>
  </metadata>
  <defs
     id="defs14" />
  <path
     id="path20"
     d="m 153.79842,283.99327 c -13.53486,-4.25656 -27.91909,-16.48895 -37.13561,-26.99998 -10.60649,-12.09621 -20.540285,-26.22939 -20.754877,-42.72238 0.174401,-0.1744 1.268747,0.17501 2.431862,0.77649 2.431205,1.25723 3.676905,5.52136 7.037335,11.47261 8.23943,14.59188 21.49817,29.33745 31.10664,37.01894 3.75166,-9.49891 11.66224,-32.01412 12.47592,-34.78067 3.08141,-10.47686 7.86091,-6.31056 10.89679,-1.78383 7.10959,10.60095 16.08958,21.09044 23.20723,29.13017 6.85849,-12.71811 13.68075,-27.42967 19.2256,-39.53718 2.91252,3.30866 1.98523,10.68671 -0.57499,16.68734 -9.46532,22.18475 -22.30084,58.22931 -47.9159,50.73849 z m 23.58056,-19.77122 c -4.25586,-4.75999 -13.45128,-14.11211 -19.34218,-20.366 -6.13437,9.27959 -11.53043,17.47322 -15.67229,23.96702 5.8148,4.22943 11.51372,8.60926 19.10581,8.50769 6.59677,-0.0883 13.77646,-6.05631 15.90866,-12.10871 z m -57.16774,-53.80823 c -0.23555,-0.61384 3.70253,-12.16518 8.8998,-26.10522 l 9.32231,-25.00419 c -2.07403,-18.46996 -3.34977,-31.32041 -4.81692,-46.43292 -5.1564,3.51795 -9.90677,7.26982 -15.04778,11.19445 -4.47078,3.41297 -7.85509,6.85042 -10.9453,6.88092 -1.61409,0.0159 -2.81448,-0.92635 -0.44201,-6.21684 4.39877,-9.80907 14.76781,-18.53164 25.05901,-30.813972 -0.62959,-22.953683 -1.922,-45.946528 -1.32135,-68.909371 0.35166,-13.444093 8.36614,-10.892582 8.36614,-6.404027 v 15.657571 c 0,16.225241 2.04231,50.220058 2.97507,62.908187 5.501,4.627372 1.2033,1.35723 15.72105,12.980672 13.58683,10.87811 20.44459,17.95962 24.18111,24.97007 1.17257,2.19996 2.13194,4.19002 2.13194,4.42235 0,0.95763 -5.21139,0.65606 -7.01802,-1.01021 -11.42073,-10.5334 -20.31333,-19.12021 -33.80735,-29.14367 1.41116,20.58829 2.52303,36.09499 4.19273,55.85067 9.30312,9.11189 19.07598,18.66641 27.42341,26.82324 14.57216,14.57286 14.00191,14.25105 14.69525,16.23361 2.09965,6.00379 -5.68296,0.66979 -7.29921,-0.54251 -14.4146,-11.00987 -27.73421,-24.98992 -38.05995,-35.26154 l -2.97172,7.23609 c -4.93376,12.01365 -12.00353,23.35239 -18.34534,29.42286 -2.0194,1.933 -2.54766,2.16378 -2.89302,1.26378 z"
     style="fill:#000000;stroke-width:0.69244891" />
</svg>
