<svg enable-background="new 0 0 400 400" viewBox="0 0 400 400" xmlns="http://www.w3.org/2000/svg"><path d="m233.08 237.34c0-13.52 0-26.87 0-41.3-6.17 3.92-12.2 7.37-17.81 11.41-4.97 3.58-9.3 8.05-14.26 11.65-4.38 3.19-9.47 4.4-15.01 2.75-.32-4.94.23-9.04 5.01-12.09 5.45-3.48 10.21-8.01 15.49-11.77 8.18-5.83 16.59-11.34 24.79-17.14 1.14-.81 2.18-2.47 2.32-3.84.45-4.33.34-8.72.65-13.07.15-2.17-.4-3.04-2.72-3.51-10.83-2.23-21.37-.38-31.92 1.76-5.59 1.13-11.18 2.25-16.71 3.63-1.27.32-2.71 1.48-3.32 2.65-3.97 7.56-5.8 15.75-5.79 24.23.03 18.24.82 36.49.41 54.72-.59 26.39-4.39 52.34-13.03 77.45-3.67 10.67-6.8 21.53-10.52 32.18-2.13 6.09-5.53 11.52-11.38 14.89-3.07 1.78-3.89 1.46-5.32-1.77s-.66-6.28.5-9.42c4.8-12.88 9.48-25.8 14.23-38.69 6.19-16.8 7.88-34.32 8.86-52.03 1.23-22.35 3.01-44.66 4.32-67.01.48-8.14-.1-16.35.52-24.47.37-4.83 2.04-9.58 3.32-14.31.29-1.07 1.29-2.04 2.16-2.85 7.09-6.59 15.68-9.74 25.15-10.75 12.77-1.37 25.54-2.73 38.33-3.86 2.2-.2 3.46-1.05 3.92-2.86.91-3.56 1.71-7.17 2.2-10.8 1.35-9.99 5.73-17.66 15.89-20.72 8.13-2.45 16.4-4.39 24.54-6.8 3.72-1.1 7.33-2.67 10.89-4.25 2.18-.97 3.37-2.71 3.09-5.38-.25-2.32-.23-4.71-.01-7.04.27-2.82-.62-4.06-3.58-4.69-15.31-3.22-30.56-6.74-45.87-10-1.22-.26-3.34.19-3.94 1.07-10.89 15.81-26.37 25.92-42.86 34.76-7.78 4.17-15.68 8.13-23.73 11.74-2.83 1.27-6.25 1.56-9.41 1.61-1.38.02-3.74-1.52-3.96-2.67-.31-1.66.36-4.4 1.6-5.29 4.69-3.38 9.53-6.76 14.77-9.15 16.73-7.62 31.74-17.44 43.62-31.65 1.36-1.63 2.69-3.28 3.78-4.61-5.61-3.76-11.37-7.17-16.61-11.25-5.2-4.04-10.05-8.61-12.9-14.8-2.79-6.07-2.56-12.1.29-18.43 5.41 2.12 9.38 5.68 11.99 10.64 3.03 5.76 5.94 11.6 11.5 15.42 1.43.98 3.09 1.82 4.77 2.22 22.49 5.44 45.01 10.72 67.49 16.21 11.45 2.8 16.53 8.22 17.19 18.14.27 4-.19 8.05-.11 12.08.14 6.59-3.07 10.53-8.9 13.42-8.76 4.34-17.93 6.73-27.54 7.97-13.23 1.7-20.88 10.46-21.13 24.25h3.58c16.57.04 33.14.02 49.7.17 2.53.02 5.18.42 7.55 1.26 1.64.58 3.28 1.96 4.24 3.43 1.5 2.29 1.33 4.34-1.67 5.93-7.61 4.02-15.74 4.74-24.1 4.53-11.85-.3-23.71-.52-35.56-.92-2.58-.09-3.59.71-3.67 3.3-.14 4.47-.41 8.95-.89 13.4-.29 2.68.48 4.18 2.96 5.51 9.17 4.9 18.2 10.07 27.25 15.2 8.65 4.9 15.96 11.19 20.02 20.53.69 1.6 2.74 3.42.56 5.41-2.1 1.91-4.56 2.36-7.15 1.18-1.72-.78-3.42-1.67-4.96-2.76-11.52-8.13-22.99-16.32-34.49-24.49-.97-.69-1.99-1.33-3.71-2.47v42.16c5.91 0 12.13-.08 18.34.02 9.84.15 19.69.34 29.52.71 2.18.08 4.67.45 6.4 1.6 1.65 1.1 3.03 3.27 3.48 5.22.24 1.03-1.53 2.91-2.81 3.83-4.24 3.04-9.01 3.57-14.08 2.42-5.17-1.18-10.37-1.64-15.63.44-.37 11.78-.3 23.55-1.18 35.25-1.84 24.58 1.12 48.68 6.08 72.66.63 3.04.99 6.2.98 9.3-.01 1.66-.75 3.56-1.75 4.91-2.31 3.11-6.68 2.63-8.47-.76-6.45-12.22-8.99-25.35-9.44-39.08-.88-27.05-2.02-54.1-3.07-81.15-.01-.32-.14-.63-.26-1.15-9.9 0-19.8 0-30.08 0-.36 6.26-.75 12.47-1.06 18.69-1.22 24.14-2.47 48.29-3.59 72.43-.41 8.9-1.92 17.56-4.79 25.97-1.87 5.47-5.21 7.84-9.27 6.57-1.18-.37-2.5-1.52-2.99-2.64-2.08-4.75-1.69-9.79-.08-14.46 4.15-12.05 4.75-24.5 5.02-37.04.47-21.37.95-42.74 1.66-64.11.12-3.7-1.32-5.24-4.59-5.32-4.8-.11-9.6.1-14.41.11-3.11.01-6.3.33-9.3-.25-4.19-.81-6.45-4.89-5.36-8.98.23-.87 1.25-1.77 2.13-2.2 5.69-2.75 11.78-3.22 18-3.1 10.74.21 21.48.31 32.22.44 1.01-.05 1.99-.18 3.47-.28z" fill="#010103"/><path d="m91.4 123.39h37.92c.25-4.02.68-8.22.73-12.42.1-7.38-.31-14.78.02-22.14.31-6.69 3.46-10.42 9.03-11.9 3.32 5.23 4.74 11 4.71 17.16-.08 16.9-.08 33.79-.33 50.69-.17 11.58-1.68 23.07-5.63 33.95-1.91 5.25-6.24 9.37-11.98 10.83-11 2.82-22.02 2.29-32.64-1.65-2.67-.99-5.09-3.6-6.8-6.04-5.94-8.45-7.91-18.1-7.64-28.32.29-10.85.56-21.7.63-32.55.08-12.75.02-25.5-.17-38.25-.04-2.7 1.31-4.52 3.21-5.37 1.2-.54 3.36.38 4.8 1.18 3.27 1.81 5.08 4.98 5.09 8.56.01 5.78-.75 11.57-.92 17.36-.16 6.08-.03 12.18-.03 18.91zm1.78 14.1c-.97 9.41-1.27 18.44.78 27.31.81 3.48 2.85 6.71 4.58 9.92.49.91 1.84 1.83 2.87 1.91 4.88.41 9.86 1.2 14.65.62 6.97-.86 10.73-3.01 11.41-10.3.19-1.99.85-3.95.98-5.94.44-6.55.81-13.1 1.04-19.66.1-2.82-1.3-4.04-4.39-3.94-6.81.24-13.63.07-20.44.07-3.76.01-7.52.01-11.48.01z" fill="#010103"/><g fill="#fcfbfa"><path d="m385.2 377.6.6-.7c.6.4 1.3.9 1.9 1.5l-.6.7c-.8-.5-1.4-1-1.9-1.5zm.3 7.1c.6-1.4 1.1-2.9 1.5-4.5.3.1.6.3.9.4-.5 1.4-1 2.9-1.5 4.4zm.2-10.1.6-.6c.7.5 1.3 1.1 1.9 1.6l-.7.7c-.6-.6-1.2-1.2-1.8-1.7zm8.4-.8h.8v.9h1.8v.7h-1.8v1.8h-.8v-.3h-1.2v.9h3.3v2.6h-.8v-.4h-2.5c0 .3 0 .6-.1.8h3.4v.7h-3.5c0 .3-.1.6-.1.8h4v.7h-3.5c.7.9 1.9 1.3 3.6 1.5-.2.2-.4.5-.6.9-1.9-.3-3.2-1.1-3.8-2.3-.5 1.1-1.8 2-3.9 2.4-.2-.3-.4-.5-.6-.8 1.9-.4 3.1-.9 3.6-1.7h-3.2v-.7h3.5c.1-.2.1-.5.2-.8h-3.3v-.7h3.4c0-.2 0-.5 0-.8h-2.4v.3h-.8v-2.6h3.3v-.9h-1.2v.3h-.8v-1.8h-1.8v-.7h1.8v-.9h.8v.9h3.2zm-4.4 5.5h2.4c0-.3 0-.6 0-.9h-2.4zm1.2-3.1h3.2v-.8h-3.2zm4.4 2.2h-2.4v.9h2.5v-.9z"/><path d="m389.2 385.8h.9v1.5h1.9v-1.5h.9v1.5h2.7v6h1.1v.9h-11.3v-.9h1.1v-6h2.7zm.2 8.7.5.8c-1.2.6-2.5 1.3-4 1.9-.2-.3-.3-.6-.6-.8 1.6-.6 3-1.3 4.1-1.9zm-2-4.3h1.9v-2.1h-1.9zm0 3.1h1.9v-2.2h-1.9zm2.7-3.1h1.9v-2.1h-1.9zm0 3.1h1.9v-2.2h-1.9zm2.4 1.3c1.4.6 2.7 1.2 4.1 1.8l-.5.9c-1.5-.7-2.8-1.4-4.1-1.9zm2.2-6.5h-1.9v2.1h1.9zm-1.9 5.2h1.9v-2.2h-1.9z"/></g></svg>