<?xml version="1.0" encoding="UTF-8" standalone="no"?>
<!-- Created with Inkscape (http://www.inkscape.org/) -->

<svg
   width="300"
   height="300"
   viewBox="0 0 79.374998 79.375002"
   version="1.1"
   id="svg5"
   inkscape:version="1.3.2 (091e20e, 2023-11-25, custom)"
   sodipodi:docname="绘图-1.svg"
   xml:space="preserve"
   xmlns:inkscape="http://www.inkscape.org/namespaces/inkscape"
   xmlns:sodipodi="http://sodipodi.sourceforge.net/DTD/sodipodi-0.dtd"
   xmlns="http://www.w3.org/2000/svg"
   xmlns:svg="http://www.w3.org/2000/svg"
   xmlns:rdf="http://www.w3.org/1999/02/22-rdf-syntax-ns#"
   xmlns:cc="http://creativecommons.org/ns#"><sodipodi:namedview
     id="namedview7"
     pagecolor="#ffffff"
     bordercolor="#666666"
     borderopacity="1.0"
     inkscape:pageshadow="2"
     inkscape:pageopacity="0.0"
     inkscape:pagecheckerboard="0"
     inkscape:document-units="px"
     showgrid="false"
     units="px"
     width="300px"
     inkscape:zoom="1.7466666"
     inkscape:cx="24.045802"
     inkscape:cy="139.12214"
     inkscape:window-width="1280"
     inkscape:window-height="778"
     inkscape:window-x="-6"
     inkscape:window-y="-6"
     inkscape:window-maximized="1"
     inkscape:current-layer="layer2"
     showguides="true"
     inkscape:showpageshadow="2"
     inkscape:deskcolor="#d1d1d1" /><defs
     id="defs2"><inkscape:perspective
       sodipodi:type="inkscape:persp3d"
       inkscape:vp_x="0 : 39.687501 : 1"
       inkscape:vp_y="0 : 1000 : 0"
       inkscape:vp_z="79.374998 : 39.687501 : 1"
       inkscape:persp3d-origin="39.687499 : 26.458334 : 1"
       id="perspective29286" /><pattern
       id="EMFhbasepattern"
       patternUnits="userSpaceOnUse"
       width="6"
       height="6"
       x="0"
       y="0" /><pattern
       id="EMFhbasepattern-3"
       patternUnits="userSpaceOnUse"
       width="6"
       height="6"
       x="0"
       y="0" /><pattern
       id="EMFhbasepattern-9"
       patternUnits="userSpaceOnUse"
       width="6"
       height="6"
       x="0"
       y="0" /><pattern
       id="EMFhbasepattern-98"
       patternUnits="userSpaceOnUse"
       width="6"
       height="6"
       x="0"
       y="0" /><pattern
       id="EMFhbasepattern-6"
       patternUnits="userSpaceOnUse"
       width="6"
       height="6"
       x="0"
       y="0" /><pattern
       id="EMFhbasepattern-69"
       patternUnits="userSpaceOnUse"
       width="6"
       height="6"
       x="0"
       y="0" /><pattern
       id="EMFhbasepattern-36"
       patternUnits="userSpaceOnUse"
       width="6"
       height="6"
       x="0"
       y="0" /><pattern
       id="EMFhbasepattern-60"
       patternUnits="userSpaceOnUse"
       width="6"
       height="6"
       x="0"
       y="0" /><pattern
       id="EMFhbasepattern-5"
       patternUnits="userSpaceOnUse"
       width="6"
       height="6"
       x="0"
       y="0" /><pattern
       id="EMFhbasepattern-981"
       patternUnits="userSpaceOnUse"
       width="6"
       height="6"
       x="0"
       y="0" /></defs><g
     inkscape:label="图层 1"
     inkscape:groupmode="layer"
     id="layer1" /><g
     inkscape:groupmode="layer"
     id="layer2"
     inkscape:label="图层 2"><path
       style="fill:#000000;stroke-width:1.7741"
       d="m 20.541041,60.555175 c 0.351633,-7.004107 1.156308,-14.148979 1.732349,-15.664082 1.51825,-3.993306 4.329179,-4.90051 16.142286,-5.209794 L 49.305875,39.396176 V 36.903245 L 49.440246,34.947791 38.09065,34.838276 C 26.339059,34.724876 22.812813,34.716431 21.441006,32.153182 20.545943,30.480741 20.453931,10.88494 21.314246,5.1569564 c 0.782811,-5.21196698 2.921398,-5.07765698 3.260351,0.204761 l 0.249639,3.89047 h 15.517007 c 14.970974,0 15.517006,0.05764 15.517006,1.6380936 0,1.580616 -0.546032,1.638093 -15.561884,1.638093 H 24.734483 v 2.866663 2.86666 l 5.938087,0.06513 c 3.265948,0.03582 9.018393,0.320932 12.783213,0.633583 9.529665,0.791394 9.945325,1.373807 9.945325,13.935117 0,11.886707 1.95183,28.990811 4.103075,35.955735 2.097181,6.789881 2.118429,9.200822 0.08109,9.200822 -2.075408,0 -3.152479,-2.575865 -5.907146,-16.779238 -1.283016,-6.615373 -2.483073,-14.033824 -2.493808,-18.180689 l -7.045117,0.297916 c -8.757474,0.370323 -13.415245,0.674489 -15.671118,2.904353 -1.253662,1.239206 -1.765526,3.073141 -1.82699,5.843671 -0.0028,0.129243 -0.188462,5.068357 -0.412235,10.496868 -0.163589,3.96847 -0.347576,8.198481 -0.495493,11.002092 -0.175352,3.323601 0.174571,4.171363 -1.581248,4.246304 -1.755817,0.07494 -2.236335,-4.873799 -1.611077,-17.328179 z M 48.371259,23.087211 c -0.34564,-0.219 -2.270604,-0.436928 -4.997869,-0.549731 -3.404218,-0.140792 -6.811051,-0.179407 -10.218277,-0.186704 -2.807026,-0.006 -8.420632,0.0092 -8.420632,0.006 v 3.645041 c 0,2.607375 0.408032,3.882668 1.433331,4.47985 0.788333,0.459162 6.549115,0.846047 12.801741,0.859744 h 10.763744 c 0.04684,0 0.232644,-2.835596 0.158639,-4.256583 -0.07692,-1.476973 -0.434533,-2.884304 -1.520679,-3.997677 z"
       id="path1"
       sodipodi:nodetypes="ssscccsssscssscccsssssscssssszsscssssscsscc" /></g><metadata
     id="metadata822"><rdf:RDF><cc:License
         rdf:about="http://creativecommons.org/publicdomain/zero/1.0/"><cc:permits
           rdf:resource="http://creativecommons.org/ns#Reproduction" /><cc:permits
           rdf:resource="http://creativecommons.org/ns#Distribution" /><cc:permits
           rdf:resource="http://creativecommons.org/ns#DerivativeWorks" /></cc:License><cc:Work
         rdf:about=""><cc:license
           rdf:resource="http://creativecommons.org/publicdomain/zero/1.0/" /></cc:Work></rdf:RDF></metadata></svg>
