<?xml version="1.0" encoding="UTF-8" standalone="no"?>
<svg
   xmlns:dc="http://purl.org/dc/elements/1.1/"
   xmlns:cc="http://creativecommons.org/ns#"
   xmlns:rdf="http://www.w3.org/1999/02/22-rdf-syntax-ns#"
   xmlns:svg="http://www.w3.org/2000/svg"
   xmlns="http://www.w3.org/2000/svg"
   viewBox="0 0 300 300"
   height="300"
   width="300"
   id="svg2"
   version="1.1">
  <metadata
     id="metadata8">
    <rdf:RDF>
      <cc:Work
         rdf:about="">
        <dc:format>image/svg+xml</dc:format>
        <dc:type
           rdf:resource="http://purl.org/dc/dcmitype/StillImage" />
        <dc:title></dc:title>
      </cc:Work>
    </rdf:RDF>
  </metadata>
  <defs
     id="defs6" />
  <path
     id="path12"
     d="m 86.721666,280.08852 c -6.595126,-2.85403 -6.994364,-3.15543 -10.967431,-8.27986 -9.688951,-11.59726 -5.919943,-39.47979 -6.154192,-43.61181 -0.119262,-13.8431 -0.03531,-18.35862 -0.102472,-33.39719 l 2.399472,-22.90568 2.095049,-2.19853 c 1.152281,-1.2092 2.910355,-2.37937 3.906841,-2.60039 1.795759,-0.39831 1.825817,-0.33504 3.396984,7.15221 0.655169,10.35899 1.351232,21.48967 1.41189,30.61964 l 6.446382,0.43018 c 3.545497,0.23659 16.898121,0.50107 29.672481,0.58772 l 23.22611,0.15753 c 1.1657,-19.30927 3.83093,-39.23953 4.55252,-56.44933 l 0.40388,-10.45357 c 1.47501,-34.1715 -1.0477,-43.993785 -4.74021,-68.645175 -2.0438,-16.125711 -3.26512,-20.537417 -8.67528,-31.337144 l -4.93937,-9.859939 1.63353,-6.042909 c 1.44191,-5.334009 1.90221,-6.199813 3.92371,-7.38043 l 2.29015,-1.337522 1.66833,2.019251 c 2.44309,2.956967 10.09552,18.218921 13.76675,27.456293 1.75186,4.407925 3.94756,11.623126 4.87935,16.033779 0.93179,4.410654 2.18174,9.186299 2.77766,10.612546 0.99181,2.373746 4.59697,5.40224 6.43859,5.408711 1.03787,0.0036 8.54785,-10.119525 17.61461,-23.743805 8.43338,-12.672537 14.48746,-19.127783 20.61495,-21.981003 5.93988,-2.76586 6.73248,-2.436047 7.72906,3.216192 0.57272,3.248288 -2.05147,15.177874 -3.83253,17.422632 -0.7603,0.958244 -3.33757,4.972134 -5.72726,8.919753 -2.84119,4.693448 -6.00883,8.783875 -9.15272,11.819048 -7.85915,11.083671 -13.21655,21.37755 -18.09359,33.619812 -1.96824,5.02399 -5.04013,16.64965 -5.75949,21.79701 -6.42835,18.37184 -5.13203,36.91515 -5.02451,55.21102 0.0714,10.17271 -0.74661,22.16431 -1.21785,24.28055 4.22487,0.98736 3.652,0.9914 4.7631,1.13553 6.86628,0.89068 22.81147,2.31948 31.1448,2.37129 l 14.28656,0.0888 1.56803,-3.10951 c 1.72288,-13.26075 2.76152,-32.95063 5.05577,-44.89052 l 1.39099,-1.48064 c 0.76503,-0.81435 1.85233,-3.03415 2.41619,-4.93289 0.73449,-2.47333 1.60521,-3.79488 3.0706,-4.66051 1.12496,-0.66453 2.1967,-1.20823 2.38163,-1.20823 0.18493,0 0.76339,2.11685 1.28547,4.70411 0.58045,16.68101 0.62212,34.37163 -0.72053,50.3514 0.28737,13.82313 0.20448,22.10521 0.32961,30.53751 -1.57844,16.74827 -4.50833,31.77469 -7.65473,39.25841 -1.57364,3.74293 -7.86655,7.36373 -16.44054,9.45953 -3.51365,0.85886 -8.82937,1.13061 -23.69478,1.21129 -30.19207,-0.60826 -91.402844,-2.43093 -95.643564,-5.3752 z m 93.190834,-8.25546 c 7.87737,0.22465 10.31713,0.42038 17.59714,-0.0572 3.28994,-0.70941 12.05655,-1.30409 14.8504,-10.67686 l 1.18222,-8.77235 0.49738,-11.35678 c 0.3373,-7.7013 0.24606,-12.29019 -0.28345,-14.25663 l -0.78085,-2.89983 -14.43391,-0.004 c -37.13921,-1.31587 -80.51534,-3.65014 -114.935662,-4.07732 -0.485094,0.66342 0.120355,6.44297 -0.171783,13.18543 -0.424086,9.78779 -0.533131,17.74076 1.148324,21.64606 2.885376,6.70149 0.667747,10.05802 9.617891,12.89835 28.10606,1.2345 58.09691,4.14883 85.7123,4.37095 z"
     style="fill:#000000;stroke-width:0.69690526" />
</svg>
