<?xml version="1.0" encoding="UTF-8" standalone="no"?>
<svg
   xmlns:dc="http://purl.org/dc/elements/1.1/"
   xmlns:cc="http://creativecommons.org/ns#"
   xmlns:rdf="http://www.w3.org/1999/02/22-rdf-syntax-ns#"
   xmlns:svg="http://www.w3.org/2000/svg"
   xmlns="http://www.w3.org/2000/svg"
   viewBox="0 0 300 300"
   height="300"
   width="300"
   id="svg616"
   version="1.1">
  <metadata
     id="metadata622">
    <rdf:RDF>
      <cc:Work
         rdf:about="">
        <dc:format>image/svg+xml</dc:format>
        <dc:type
           rdf:resource="http://purl.org/dc/dcmitype/StillImage" />
        <dc:title></dc:title>
      </cc:Work>
    </rdf:RDF>
  </metadata>
  <defs
     id="defs620" />
  <path
     id="path626"
     d="m 199.24679,264.83158 c -4.87843,-0.31339 -36.97463,-0.8135 -71.32489,-1.11134 l -62.455032,-0.54153 -1.62373,-1.72838 c -1.40205,-1.49241 -1.5319,-2.09651 -0.95114,-4.42469 1.15917,-4.64685 3.45624,-4.89571 43.600572,-4.72361 l 34.21125,0.14666 0.59482,-10.70836 c 0.32714,-5.8896 0.65536,-52.22168 0.72935,-102.96017 0.074,-50.738496 0.3803,-93.069007 0.68067,-94.067796 0.30037,-0.998789 1.38393,-3.7173 2.40791,-6.041134 1.70818,-3.876567 2.01662,-4.188492 3.73844,-3.780779 3.11084,0.736615 5.45682,2.914659 6.35917,5.903941 0.63577,2.106117 0.86804,29.301161 0.90962,106.495318 0.0548,101.71927 0.0822,103.68106 1.46085,104.41889 0.904,0.4838 13.01364,0.77147 33.95884,0.8067 20.64772,0.0347 34.80272,0.36681 38.70284,0.90799 6.0282,0.83647 6.16208,0.89882 6.8125,3.1732 0.96576,3.37697 0.25189,4.43435 -4.41744,6.54315 -3.7755,1.70511 -5.18245,1.90859 -14.35523,2.07607 -5.59322,0.10211 -14.16094,-0.0707 -19.03937,-0.38413 z"
     style="fill:#000000;stroke-width:0.72639227" />
</svg>
