<?xml version="1.0" encoding="UTF-8" standalone="no"?>
<svg
   xmlns:dc="http://purl.org/dc/elements/1.1/"
   xmlns:cc="http://creativecommons.org/ns#"
   xmlns:rdf="http://www.w3.org/1999/02/22-rdf-syntax-ns#"
   xmlns:svg="http://www.w3.org/2000/svg"
   xmlns="http://www.w3.org/2000/svg"
   viewBox="0 0 300 300"
   height="300"
   width="300"
   id="svg636"
   version="1.1">
  <metadata
     id="metadata642">
    <rdf:RDF>
      <cc:Work
         rdf:about="">
        <dc:format>image/svg+xml</dc:format>
        <dc:type
           rdf:resource="http://purl.org/dc/dcmitype/StillImage" />
        <dc:title></dc:title>
      </cc:Work>
    </rdf:RDF>
  </metadata>
  <defs
     id="defs640" />
  <path
     id="path646"
     d="m 15.163795,241.11615 c -4.53888,-4.31564 -7.6803498,-9.01519 -6.6889898,-10.00655 0.18459,-0.18459 8.4822198,-0.83255 18.4391798,-1.43991 17.57969,-1.07235 44.73498,-4.45035 78.757315,-9.79709 10.65245,-1.67407 20.49101,-2.50882 47.4595,-4.02665 18.71168,-1.05312 35.8727,-1.70898 38.13559,-1.45746 2.26289,0.25152 18.98723,0.71147 37.1652,1.02212 32.33997,0.55266 33.20026,0.60505 39.99776,2.43568 9.00276,2.42452 22.08602,9.03507 23.27494,11.76007 0.15764,0.36131 -4.05299,1.86698 -9.35695,3.34594 l -9.64356,2.68901 -15.78017,-1.73826 -15.78016,-1.73826 -28.9916,1.16488 c -26.6189,1.06954 -31.73149,1.06927 -62.46973,-0.004 l -33.47813,-1.1681 -47.306785,6.93085 c -26.01873,3.81197 -47.59258,6.9307 -47.94189,6.93051 -0.34931,-1.9e-4 -2.9555,-2.20661 -5.79152,-4.90315 z M 81.361275,78.368233 c -0.21303,-0.213029 -0.38732,-1.624645 -0.38732,-3.136929 0,-2.418413 0.37186,-3.004663 3.08717,-4.86711 12.06665,-8.276577 26.671155,-12.057544 55.024215,-14.245255 33.56943,-2.590203 39.42737,-2.708598 49.02909,-0.990931 4.7955,0.857876 8.85529,1.665489 9.02174,1.794697 0.61566,0.477899 -5.51496,5.313078 -9.38255,7.399946 -4.42595,2.38815 -11.19092,3.962662 -22.15496,5.156452 -3.99516,0.435002 -11.023,1.42944 -15.61744,2.209861 -14.84631,2.52183 -32.82682,4.974037 -42.13075,5.745848 -11.251815,0.933399 -25.970555,1.452051 -26.489195,0.933421 z"
     style="fill:#000000;stroke-width:0.72639227" />
</svg>
