<?xml version="1.0" encoding="UTF-8" standalone="no"?>
<!-- Created with Inkscape (http://www.inkscape.org/) -->

<svg
   xmlns:dc="http://purl.org/dc/elements/1.1/"
   xmlns:cc="http://creativecommons.org/ns#"
   xmlns:rdf="http://www.w3.org/1999/02/22-rdf-syntax-ns#"
   xmlns:svg="http://www.w3.org/2000/svg"
   xmlns="http://www.w3.org/2000/svg"
   xmlns:sodipodi="http://sodipodi.sourceforge.net/DTD/sodipodi-0.dtd"
   xmlns:inkscape="http://www.inkscape.org/namespaces/inkscape"
   width="300"
   height="300"
   viewBox="0 0 300 300"
   id="svg2"
   version="1.1"
   inkscape:version="0.91 r13725"
   sodipodi:docname="黄-oracle.svg">
  <defs
     id="defs4" />
  <sodipodi:namedview
     id="base"
     pagecolor="#ffffff"
     bordercolor="#666666"
     borderopacity="1.0"
     inkscape:pageopacity="0.0"
     inkscape:pageshadow="2"
     inkscape:zoom="1.2432572"
     inkscape:cx="133.16179"
     inkscape:cy="151.18248"
     inkscape:document-units="px"
     inkscape:current-layer="layer1"
     showgrid="false"
     units="px"
     inkscape:window-width="985"
     inkscape:window-height="605"
     inkscape:window-x="98"
     inkscape:window-y="14"
     inkscape:window-maximized="0" />
  <metadata
     id="metadata7">
    <rdf:RDF>
      <cc:Work
         rdf:about="">
        <dc:format>image/svg+xml</dc:format>
        <dc:type
           rdf:resource="http://purl.org/dc/dcmitype/StillImage" />
        <dc:title></dc:title>
      </cc:Work>
    </rdf:RDF>
  </metadata>
  <g
     inkscape:label="Layer 1"
     inkscape:groupmode="layer"
     id="layer1"
     transform="translate(0,-752.36216)">
    <path
       style="fill:#000000"
       d="m 165.17519,986.37053 c 0,-34.03286 -1.02341,-51.19419 -3.13077,-52.49657 -1.73896,-1.07467 -6.71773,2.26776 -11.19939,7.51883 -7.94445,9.30819 -8.08052,10.06196 -8.84674,48.97385 -0.64774,32.90366 -1.4856,39.51996 -5.00518,39.51996 -3.51679,0 -4.35955,-6.5729 -5.01385,-39.09939 -0.54464,-27.0849 0.31627,-41.5901 2.8017,-47.20509 1.97339,-4.45825 4.39862,-8.10589 5.38955,-8.10589 0.99086,0 2.46483,-2.5364 3.27554,-5.63633 1.17235,-4.48337 0.0865,-5.63644 -5.30786,-5.63644 -3.72993,0 -6.78171,1.26813 -6.78171,2.8181 0,1.55005 -1.87808,2.81834 -4.17356,2.81834 -5.19448,0 -6.49151,-5.51032 -9.61909,-40.86429 -1.80764,-20.43299 -1.61018,-28.75156 0.71791,-30.2527 1.76607,-1.13876 9.23496,-2.08985 16.59765,-2.11373 l 13.38645,-0.0432 0.19424,-11.97745 c 0.10686,-6.58754 0.64908,-15.41541 1.20507,-19.61737 l 1.01102,-7.64013 -8.95525,9.13575 c -4.92543,5.02484 -13.95195,14.8038 -20.05911,21.73135 -12.44622,14.11779 -20.92537,20.96048 -23.17996,18.70593 -1.324811,-1.32486 11.19231,-19.02319 20.76589,-29.36137 1.86517,-2.01421 8.20612,-9.64167 14.09106,-16.9497 5.88488,-7.3081 12.91907,-15.75908 15.63172,-18.78007 2.71248,-3.02077 5.04109,-7.47263 5.17462,-9.89295 0.13355,-2.42015 0.4506,-8.83918 0.70456,-14.26427 0.39884,-8.51922 1.42202,-9.86366 7.50733,-9.86366 6.92023,0 7.0498,0.40892 7.28582,23.00936 0.23943,22.91454 0.29142,23.07106 12.66929,38.04597 6.83596,8.27013 14.02002,16.71236 15.96459,18.76074 4.49214,4.73185 4.45849,6.13966 -0.147,6.13966 -2.02513,0 -9.81037,-5.70689 -17.30045,-12.6819 -7.49008,-6.97523 -14.07647,-12.68207 -14.63626,-12.68207 -0.55977,0 -1.01783,6.34102 -1.01783,14.09107 l 0,14.09111 11.27283,0 c 12.09114,0 12.45152,0.55553 11.42463,17.61393 -0.36823,6.11511 0.65324,10.56833 2.42417,10.56833 4.83348,0 3.56412,8.87417 -1.83386,12.82139 -4.62398,3.38099 -4.5989,3.90539 0.45238,9.48707 6.51444,7.19841 5.58295,8.29706 -9.23043,10.88616 l -11.63251,2.03307 4.7722,8.45474 c 4.02681,7.13413 4.66232,15.49732 4.06919,53.54614 -0.76413,49.01569 -1.59415,54.95549 -7.68113,54.95549 -3.35441,0 -4.03747,-8.5545 -4.03747,-50.56189 z M 146.5553,905.65444 c 3.04624,-7.93842 1.85965,-9.63329 -6.74413,-9.63329 -6.31962,0 -8.45469,1.30472 -8.45469,5.16672 0,2.84182 0.84545,6.0123 1.87891,7.04557 3.48366,3.48374 11.59609,1.91293 13.31991,-2.579 z m 26.51093,-1.74223 c 5.48216,-5.48202 3.93347,-7.89106 -5.07282,-7.89106 -5.16673,0 -8.45467,1.4613 -8.45467,3.75762 0,7.7162 7.61717,10.04365 13.52749,4.13344 z m -26.20944,-26.20944 c 0,-4.29919 -2.17326,-5.84599 -9.15923,-6.51953 -9.73125,-0.93832 -12.27716,3.68328 -5.66941,10.29121 5.27326,5.27309 14.82864,2.84273 14.82864,-3.77168 z m 25.13351,5.3349 c 6.50354,-2.49566 5.69534,-12.38048 -1.01235,-12.38048 -6.48528,0 -9.73518,4.30406 -7.55006,9.99861 1.77135,4.61585 2.33328,4.77221 8.56241,2.38187 z"
       id="path3793"
       inkscape:connector-curvature="0" />
  </g>
</svg>
