<?xml version="1.0" encoding="utf-8"?>
<!-- Generator: Adobe Illustrator 28.2.0, SVG Export Plug-In . SVG Version: 6.00 Build 0)  -->
<svg version="1.1" id="图层_1" xmlns="http://www.w3.org/2000/svg" xmlns:xlink="http://www.w3.org/1999/xlink" x="0px" y="0px"
	 viewBox="0 0 602 667" style="enable-background:new 0 0 602 667;" xml:space="preserve">
<style type="text/css">
	.st0{stroke:#000000;stroke-width:13;stroke-miterlimit:10;}
	.st1{font-family:'ArialMT';}
	.st2{font-size:172px;}
</style>
<path class="st0" d="M574.37,211.16c-182.5,0-364.72,0-547.23,0c0-59.09,0-118.07,0-177.29c182.32,0,364.64,0,547.23,0
	C574.37,92.83,574.37,151.82,574.37,211.16z M29.76,208.07c180.76,0,361.22,0,541.81,0c0-57.18,0-114.16,0-171.25
	c-180.71,0-361.16,0-541.81,0C29.76,93.91,29.76,150.82,29.76,208.07z"/>
<path class="st0" d="M269.18,233.18c0,136.74,0,273.09,0,409.62c-80.76,0-161.32,0-242.11,0c0-136.58,0-273.01,0-409.62
	C107.81,233.18,188.38,233.18,269.18,233.18z M266.3,639.88c0-134.76,0-269.18,0-403.69c-78.96,0-157.65,0-236.54,0
	c0,134.62,0,269.05,0,403.69C108.66,639.88,187.34,639.88,266.3,639.88z"/>
<path class="st0" d="M574.5,233.22c0,136.62,0,272.97,0,409.54c-80.72,0-161.28,0-242.12,0c0-136.46,0-272.89,0-409.54
	C413,233.22,493.56,233.22,574.5,233.22z M335.06,236.1c0,134.79,0,269.23,0,403.67c79.03,0,157.81,0,236.46,0
	c0-134.73,0-269.15,0-403.67C492.6,236.1,414.01,236.1,335.06,236.1z"/>
<text transform="matrix(1 0 0 1 254.6001 162.2002)" class="st1 st2">a</text>
<text transform="matrix(1 0 0 1 107.2002 507)" class="st1 st2">b</text>
<text transform="matrix(1 0 0 1 409.6001 509)" class="st1 st2">c</text>
</svg>
